<?xml version="1.0" encoding="utf-8"?>
<!-- Generator: Adobe Illustrator 19.0.0, SVG Export Plug-In . SVG Version: 6.00 Build 0)  -->
<svg version="1.1" id="Layer_1" xmlns="http://www.w3.org/2000/svg" xmlns:xlink="http://www.w3.org/1999/xlink" x="0px" y="0px"
	 viewBox="-209 232.9 176.6 377" style="enable-background:new -209 232.9 176.6 377;" xml:space="preserve">
<style type="text/css">
	.st0{fill:#EFF4F4;}
</style>
<path class="st0" d="M-35,515.7c-3.5-3.5-9.2-3.5-12.7,0l-63.5,63.5V241.9c0-5-4-9-9-9s-9,4-9,9v337.5l-64.4-64.4
	c-3.5-3.5-9.2-3.5-12.7,0c-3.5,3.5-3.5,9.2,0,12.7l78.9,78.9c0.5,0.5,1,0.9,1.6,1.3c0.1,0.1,0.2,0.1,0.3,0.2
	c0.1,0.1,0.2,0.2,0.4,0.3c0.1,0.1,0.3,0.2,0.4,0.2c0.1,0.1,0.2,0.1,0.4,0.2c0.1,0.1,0.3,0.1,0.4,0.2c0.1,0.1,0.3,0.1,0.4,0.2
	c0.1,0.1,0.3,0.1,0.4,0.1c0.1,0.1,0.3,0.1,0.4,0.2c0.1,0,0.3,0.1,0.4,0.1s0.3,0.1,0.4,0.1c0.2,0,0.3,0,0.5,0.1c0.1,0,0.3,0,0.4,0.1
	c0.3,0,0.6,0,0.9,0s0.6,0,0.9,0c0.1,0,0.3,0,0.4-0.1c0.2,0,0.3,0,0.5-0.1c0.2,0,0.3-0.1,0.5-0.1c0.1,0,0.3-0.1,0.4-0.1
	s0.3-0.1,0.4-0.2c0.1,0,0.3-0.1,0.4-0.1c0.1-0.1,0.3-0.1,0.4-0.2c0.1-0.1,0.3-0.1,0.4-0.2c0.1-0.1,0.2-0.1,0.4-0.2
	c0.1-0.1,0.3-0.2,0.4-0.2c0.1-0.1,0.3-0.2,0.4-0.3c0.1-0.1,0.2-0.2,0.3-0.2c0.2-0.2,0.4-0.3,0.6-0.5c0,0,0.1,0,0.1-0.1l78.9-78.9
	C-31.5,524.9-31.5,519.2-35,515.7z"/>
</svg>
