<svg version="1.2" baseProfile="tiny-ps" xmlns="http://www.w3.org/2000/svg" viewBox="0 0 120 120" width="120" height="120">
	<title>vimeo_icon_white_on_blue_rounded</title>
	<style>
		tspan { white-space:pre }
		.shp0 { fill: #1ab7ea } 
		.shp1 { fill: #ffffff } 
	</style>
	<path id="Shape 2" class="shp0" d="M120 108C120 114.63 114.63 120 108 120L12 120C5.37 120 0 114.63 0 108L0 12C0 5.37 5.37 0 12 0L108 0C114.63 0 120 5.37 120 12L120 108Z" />
	<path id="Shape 1" class="shp1" d="M101.15 39.35C100.77 47.79 94.91 59.35 83.58 74.02C71.86 89.34 61.94 97 53.83 97C48.81 97 44.56 92.34 41.09 83C38.77 74.45 36.45 65.89 34.13 57.34C31.55 48.01 28.78 43.34 25.83 43.34C25.18 43.34 22.92 44.7 19.06 47.42L15.01 42.17C19.26 38.41 23.46 34.65 27.58 30.88C33.26 25.95 37.52 23.35 40.35 23.09C47.06 22.44 51.19 27.06 52.74 36.93C54.42 47.59 55.57 54.22 56.23 56.81C58.16 65.65 60.29 70.06 62.61 70.06C64.41 70.06 67.12 67.2 70.74 61.46C74.35 55.73 76.28 51.36 76.54 48.37C77.06 43.42 75.12 40.94 70.74 40.94C68.67 40.94 66.55 41.42 64.36 42.36C68.59 28.4 76.69 21.62 88.63 22.01C97.49 22.27 101.66 28.05 101.15 39.35Z" />
</svg>